<?xml version="1.0" encoding="UTF-8"?>
<svg width="14px" height="14px" viewBox="0 0 14 14" version="1.1" xmlns="http://www.w3.org/2000/svg" xmlns:xlink="http://www.w3.org/1999/xlink">
    <!-- Generator: Sketch 41 (35326) - http://www.bohemiancoding.com/sketch -->
    <title>navigate-to-active</title>
    <desc>Created with Sketch.</desc>
    <defs></defs>
    <g id="Page-1" stroke="none" stroke-width="1" fill="none" fill-rule="evenodd">
        <g id="Artboard-1-Copy-7" transform="translate(-331.000000, -246.000000)" fill="#449DF8">
            <g id="Group-3" transform="translate(10.000000, 32.000000)">
                <g id="Group-4">
                    <g id="Group-6-Copy-2" transform="translate(10.000000, 202.000000)">
                        <path d="M324.92835,12.9247159 C325.057612,12.6761364 325.007896,12.3778409 324.809032,12.1889205 C324.689714,12.0596591 324.530623,12 324.361589,12 C324.262157,12 324.162725,12.0198864 324.073237,12.0696023 L311.345964,18.4332386 C311.087441,18.5625 310.948237,18.8607955 311.017839,19.1491477 C311.087441,19.4375 311.336021,19.6363636 311.634316,19.6363636 L317.361589,19.6363636 L317.361589,25.3636364 C317.361589,25.6619318 317.560452,25.9105114 317.848805,25.9801136 C317.898521,25.9900568 317.948237,26 317.997952,26 C318.236589,26 318.455339,25.8707386 318.564714,25.6519886 L324.92835,12.9247159 Z" id="navigate-to-active"></path>
                    </g>
                </g>
            </g>
        </g>
    </g>
</svg>