<svg version="1" xmlns="http://www.w3.org/2000/svg" width="933.333" height="933.333" viewBox="0 0 700.000000 700.000000"><path d="M329.8.5c-.1.1-4.1.5-8.8.9-10 .7-22.5 2.2-29.5 3.6-2.7.5-6.1 1.2-7.5 1.4-37 6.8-75.3 21.1-109.5 40.9-34.3 20-61.5 42.5-90.9 75.7-9.7 10.9-29.7 39.3-37.6 53.5-23.4 41.9-37.3 84-43.5 131.5-2.1 16.4-2.8 57.3-1.2 73 1.2 10.9 2.7 22.6 4.1 29.5.2 1.1.6 3.6 1 5.5 4.9 27.2 15.6 59.5 28.3 85.7 41.5 85.8 116.6 151.7 205.8 180.6 9.3 3 16.3 5.1 21 6.3 4.8 1.2 15.4 3.7 17 4 10.1 2 18.6 3.5 23.8 4 3.4.3 6.5.8 6.8.9 1.5 1 22.7 2 40.9 2 18.7 0 33.9-.7 43-2.1 14.4-2.1 29.5-4.8 34.5-6.1 3.3-.8 6.7-1.6 7.5-1.8 10.9-2.2 38.8-11.7 55-18.8 45.9-19.9 90.5-52.4 122.3-89.2 3.3-3.9 6.3-7.2 6.7-7.5 1.8-1.4 18.2-23.8 24.6-33.6 31-47.7 50.3-104 55.2-160.9 1.4-16.1.7-54-1.2-69.5-.2-1.9-.7-5.8-1-8.6-.4-2.8-.8-5.9-1-7-.2-1-1.1-6-2.1-10.9-14.2-76.1-55.4-147.1-115.1-198.4-13.6-11.7-27.3-22.2-33.5-25.7-1-.6-2.7-1.7-3.6-2.5-1-.8-2.9-2-4.3-2.8-1.4-.8-5.2-3.1-8.5-5.1-32.7-19.8-79.8-37.5-116-43.4-3.3-.5-22.4-3.2-29.5-4.2-4.7-.6-52.6-1.5-53.2-.9zm36.1 43.9c9 .4 16.7.8 17 1 .3.2 3.3.7 6.6 1 14 1.6 33.4 5.8 51.2 11.2 52.6 15.9 102.9 48.6 139.3 90.5 10.2 11.6 10.7 12.2 17.6 21.9 16.7 23.2 25.6 39.5 38.5 70.5 6.5 15.8 15.3 50.4 17.3 68.5.4 3 .8 6.8 1.1 8.5 2.4 15.6 1.9 55.3-1 72.5-.2 1.4-.6 4.7-1 7.4-.3 2.7-.8 5.2-.9 5.5-.2.3-.7 2.7-1 5.3-.4 2.6-.9 5.4-1.2 6.1-.4 1-20.9 1.3-111.2 1.2-60.9-.1-112.9-.5-115.7-.9-22.9-3.6-38.5-14.2-53.1-36.1-6.9-10.3-9.9-15.6-21.5-38.5-18.4-36.4-29.5-53.2-44.8-67.8-16.7-16-39.4-26.9-61.7-29.7-2.7-.4-5.7-.9-6.6-1.1-2.6-.8-27.3-.7-35.3.1-61.2 5.9-114 38.3-153.7 94.5-1.8 2.4-1.8 2.3-1.3-6 .5-7.5 1.4-15.4 3.1-28.5 1-7.8 5.5-27.2 9-39 9.3-31.6 24.3-62.2 44-90 4.3-6.1 8.3-11.5 8.8-12.2.6-.6 2.9-3.3 5.1-6 21.2-25.7 54.2-53.5 83.5-70.2 8.7-5 30.8-15.5 39.5-18.8 10.3-4 11.9-4.6 12.5-4.8.3-.1 4.3-1.3 9-2.8 16-5 37.6-9.7 51.5-11.3 3.3-.3 6.9-.8 8-1 1.1-.2 8.1-.7 15.5-1 7.4-.4 13.7-.8 13.9-1 .2-.2.7-.2 1 0 .3.2 8 .7 17 1zm-132.7 241c28.5 4.5 44.8 17.7 64 52.1 2.5 4.4 8.6 16.1 13.7 26 17.1 33.7 25.9 47.3 40.1 61.6 20.2 20.3 41.5 30.2 72 33.5 3.6.4 53 .7 109.8.8 56.7 0 103.2.1 103.2.2 0 .2-2 5-4.5 10.8-10.4 24.5-23.8 47-40.9 68.9l-6.1 7.7h-98c-61.5-.1-100-.5-103.5-1.1-9.9-1.8-19.5-7.4-29-16.9-9.5-9.4-15-16.5-29.6-38.1-20.1-29.9-33.1-45.1-47.6-56-12.5-9.3-28.3-16-42.8-18-8.2-1.2-25.4-1.5-31-.5-24.6 4.2-35.3 7.4-52 15.9-11.4 5.7-25.6 15-34.1 22.3-4.1 3.5-20.4 19.8-23.9 24-1.4 1.6-4.5 5.6-6.9 8.9-2.4 3.3-4.7 6.4-5.2 6.9-.6.7-4.5-6.7-12.9-24.9-4.1-8.8-12.7-34.6-14.9-44.5-.9-4.2-.7-5.3 4.1-17 13-32.1 28.2-55.5 50.3-77.3 23.8-23.5 51.8-38.2 82.9-43.7 6.1-1.1 13.1-2.1 15.6-2.2 6.8-.4 23-.1 27.2.6zm1.9 176.6c8.7 2.6 16.7 8.1 25.4 17.2 10 10.4 14.5 16.5 32.5 43.3 27.2 40.7 50.6 59.8 81 66.2 7.7 1.6 15.6 1.7 86.7 1.8 43.1 0 78.3.1 78.3.2s-3 2.5-6.7 5.2c-3.8 2.8-7.2 5.4-7.8 5.9-7.3 5.8-38.2 23.1-50.5 28.2-4.1 1.7-8.8 3.7-10.5 4.5-8.2 3.6-33.1 11.4-42.8 13.4-16.2 3.4-20.7 4.3-24.2 4.7-2.2.3-5.1.7-6.5.9-1.4.3-5.9.7-10 1.1-4.1.3-8.6.8-10 1-3.4.5-35.5.5-40.5-.1-2.2-.2-6.9-.7-10.4-1-24.6-2.1-53.5-9-78.9-18.6-48.6-18.5-96.4-53.2-128.1-93.2-5.4-6.8-5.4-6.9-3.9-10C114 520.8 136 495 149 485c27.4-21.2 62.2-30.5 86.1-23z"/></svg>