<?xml version="1.0" standalone="no"?>
<!DOCTYPE svg PUBLIC "-//W3C//DTD SVG 20010904//EN"
 "http://www.w3.org/TR/2001/REC-SVG-20010904/DTD/svg10.dtd">
<svg version="1.0" xmlns="http://www.w3.org/2000/svg"
 width="700.000000pt" height="700.000000pt" viewBox="0 0 700.000000 700.000000"
 preserveAspectRatio="xMidYMid meet">
<metadata>
Created by potrace 1.11, written by Peter Selinger 2001-2013
</metadata>
<g transform="translate(0.000000,700.000000) scale(0.100000,-0.100000)"
fill="#000000" stroke="none">
<path d="M3298 6995 c-1 -1 -41 -5 -88 -9 -100 -7 -225 -22 -295 -36 -27 -5
-61 -12 -75 -14 -370 -68 -753 -211 -1095 -409 -343 -200 -615 -425 -909 -757
-97 -109 -297 -393 -376 -535 -234 -419 -373 -840 -435 -1315 -21 -164 -28
-573 -12 -730 12 -109 27 -226 41 -295 2 -11 6 -36 10 -55 49 -272 156 -595
283 -857 415 -858 1166 -1517 2058 -1806 93 -30 163 -51 210 -63 48 -12 154
-37 170 -40 101 -20 186 -35 238 -40 34 -3 65 -8 68 -9 15 -10 227 -20 409
-20 187 0 339 7 430 21 144 21 295 48 345 61 33 8 67 16 75 18 109 22 388 117
550 188 459 199 905 524 1223 892 33 39 63 72 67 75 18 14 182 238 246 336
310 477 503 1040 552 1609 14 161 7 540 -12 695 -2 19 -7 58 -10 86 -4 28 -8
59 -10 70 -2 10 -11 60 -21 109 -142 761 -554 1471 -1151 1984 -136 117 -273
222 -335 257 -10 6 -27 17 -36 25 -10 8 -29 20 -43 28 -14 8 -52 31 -85 51
-327 198 -798 375 -1160 434 -33 5 -224 32 -295 42 -47 6 -526 15 -532 9z
m361 -439 c90 -4 167 -8 170 -10 3 -2 33 -7 66 -10 140 -16 334 -58 512 -112
526 -159 1029 -486 1393 -905 102 -116 107 -122 176 -219 167 -232 256 -395
385 -705 65 -158 153 -504 173 -685 4 -30 8 -68 11 -85 24 -156 19 -553 -10
-725 -2 -14 -6 -47 -10 -74 -3 -27 -8 -52 -9 -55 -2 -3 -7 -27 -10 -53 -4 -26
-9 -54 -12 -61 -4 -10 -209 -13 -1112 -12 -609 1 -1129 5 -1157 9 -229 36
-385 142 -531 361 -69 103 -99 156 -215 385 -184 364 -295 532 -448 678 -167
160 -394 269 -617 297 -27 4 -57 9 -66 11 -26 8 -273 7 -353 -1 -612 -59
-1140 -383 -1537 -945 -18 -24 -18 -23 -13 60 5 75 14 154 31 285 10 78 55
272 90 390 93 316 243 622 440 900 43 61 83 115 88 122 6 6 29 33 51 60 212
257 542 535 835 702 87 50 308 155 395 188 103 40 119 46 125 48 3 1 43 13 90
28 160 50 376 97 515 113 33 3 69 8 80 10 11 2 81 7 155 10 74 4 137 8 139 10
2 2 7 2 10 0 3 -2 80 -7 170 -10z m-1327 -2410 c285 -45 448 -177 640 -521 25
-44 86 -161 137 -260 171 -337 259 -473 401 -616 202 -203 415 -302 720 -335
36 -4 530 -7 1098 -8 567 0 1032 -1 1032 -2 0 -2 -20 -50 -45 -108 -104 -245
-238 -470 -409 -689 l-61 -77 -980 0 c-615 1 -1000 5 -1035 11 -99 18 -195 74
-290 169 -95 94 -150 165 -296 381 -201 299 -331 451 -476 560 -125 93 -283
160 -428 180 -82 12 -254 15 -310 5 -246 -42 -353 -74 -520 -159 -114 -57
-256 -150 -341 -223 -41 -35 -204 -198 -239 -240 -14 -16 -45 -56 -69 -89 -24
-33 -47 -64 -52 -69 -6 -7 -45 67 -129 249 -41 88 -127 346 -149 445 -9 42 -7
53 41 170 130 321 282 555 503 773 238 235 518 382 829 437 61 11 131 21 156
22 68 4 230 1 272 -6z m19 -1766 c87 -26 167 -81 254 -172 100 -104 145 -165
325 -433 272 -407 506 -598 810 -662 77 -16 156 -17 867 -18 431 0 783 -1 783
-2 0 -1 -30 -25 -67 -52 -38 -28 -72 -54 -78 -59 -73 -58 -382 -231 -505 -282
-41 -17 -88 -37 -105 -45 -82 -36 -331 -114 -428 -134 -162 -34 -207 -43 -242
-47 -22 -3 -51 -7 -65 -9 -14 -3 -59 -7 -100 -11 -41 -3 -86 -8 -100 -10 -34
-5 -355 -5 -405 1 -22 2 -69 7 -104 10 -246 21 -535 90 -789 186 -486 185
-964 532 -1281 932 -54 68 -54 69 -39 100 58 119 278 377 408 477 274 212 622
305 861 230z"/>
</g>
</svg>
