<svg width="27" height="40" viewBox="0 0 27 40" xmlns="http://www.w3.org/2000/svg"><defs><linearGradient x1="50%" y1="0%" x2="50%" y2="100%" id="a"><stop stop-color="#262626" offset="0%"/><stop offset="100%"/></linearGradient></defs><g fill="none" fill-rule="evenodd"><path d="M13.398 0C5.99 0 0 6.26 0 14c0 10.5 13.398 26 13.398 26s13.398-15.5 13.398-26c0-7.74-5.99-14-13.398-14z" id="Shape" fill="url(#a)"/><path d="M6.846 20.94v-7.386L13 8.63l6.154 4.924v7.385H6.846zM13 6.57l-7.003 5.544c-.266.21-.653.165-.864-.1-.21-.267-.166-.655.1-.865L13 5l7.767 6.15c.266.21.31.597.1.863s-.598.31-.864.1L13 6.57z" fill="#FFF" fill-rule="nonzero"/></g></svg>